<svg width="343" height="193" fill="none" xmlns="http://www.w3.org/2000/svg"><path d="M389.294 239.393C369.566 229.486 350.113 218.769 331.032 207.193H353.526C309.355 180.395 267.177 149.01 228.082 112.661H246.827C241.476 107.688 236.163 102.652 230.931 97.4911C205.369 72.2702 181.9 45.7453 160.517 18.1319H175.513C152.058 -12.1586 131.139 -43.767 112.716 -76.4003H123.963C106.643 -107.08 91.5355 -138.664 78.6667 -170.932H86.1648C75.0261 -198.858 65.5453 -227.289 57.7391 -256.077L67.1754 -265.465C78.789 -233.27 92.588 -201.69 108.534 -170.932H101.036C117.903 -138.407 137.187 -106.807 158.906 -76.4003H147.659C171.253 -43.3691 197.71 -11.7442 227.041 18.1319H212.045C215.047 21.1874 218.068 24.2319 221.128 27.2516C253.489 59.1804 288.13 87.6033 324.445 112.664H305.7C348.808 142.41 394.284 167.396 441.15 187.807L389.294 239.396V239.393ZM379.858 248.781C332.99 228.37 287.516 203.384 244.408 173.637H263.153C226.841 148.577 192.2 120.154 159.837 88.2249C156.776 85.2053 153.752 82.1607 150.753 79.1052H165.749C136.418 49.2291 109.961 17.6042 86.3675 -15.4269H97.6144C75.8953 -45.8335 56.6116 -77.4308 39.7439 -109.959H47.2419C31.2935 -140.716 17.4972 -172.297 5.88364 -204.491L-3.55272 -195.103C4.25351 -166.316 13.7343 -137.885 24.873 -109.959H17.375C30.2465 -77.6904 45.3535 -46.107 62.6711 -15.4269H51.4241C69.847 17.2063 90.7691 48.8146 114.221 79.1052H99.2251C120.608 106.719 144.077 133.246 169.639 158.464C174.871 163.625 180.184 168.662 185.535 173.635H166.79C205.888 209.981 248.063 241.368 292.234 268.167H269.74C288.821 279.742 308.274 290.459 328.002 300.366L379.858 248.778V248.781ZM502.441 126.828C455.573 106.417 410.1 81.4314 366.992 51.6851H385.737C349.424 26.6245 314.784 -1.7984 282.42 -33.7272C279.36 -36.7469 276.336 -39.7914 273.337 -42.847H288.332C259.001 -72.7231 232.545 -104.348 208.951 -137.379H220.198C198.479 -167.786 179.195 -199.383 162.328 -231.911H169.826C153.877 -262.669 140.081 -294.249 128.467 -326.443L119.031 -317.056C126.837 -288.268 136.318 -259.837 147.457 -231.911H139.959C152.83 -199.643 167.937 -168.059 185.255 -137.379H174.008C192.431 -104.746 213.353 -73.1375 236.805 -42.847H221.809C243.192 -15.2336 266.661 11.2941 292.223 36.5123C297.455 41.673 302.767 46.7095 308.119 51.6824H289.374C328.472 88.0288 370.646 119.416 414.818 146.215H392.324C411.405 157.79 430.858 168.507 450.586 178.414L502.441 126.826V126.828ZM195.835 431.855C148.967 411.444 103.493 386.458 60.3856 356.712H79.1306C42.8181 331.651 8.17743 303.228 -24.1861 271.3C-27.2464 268.28 -30.2705 265.235 -33.2697 262.18H-18.2738C-47.6048 232.304 -74.0615 200.679 -97.6551 167.648H-86.4082C-108.127 137.241 -127.411 105.644 -144.279 73.1156H-136.781C-152.729 42.3582 -166.525 10.7775 -178.139 -21.4165L-187.578 -12.026C-179.772 16.7616 -170.291 45.1928 -159.152 73.1184H-166.65C-153.779 105.387 -138.672 136.97 -121.354 167.65H-132.601C-114.178 200.284 -93.2563 231.892 -69.8043 262.183H-84.8003C-63.4171 289.796 -39.9485 316.324 -14.3859 341.542C-9.15399 346.703 -3.84154 351.739 1.5098 356.712H-17.2352C21.8626 393.058 64.0374 424.446 108.209 451.244H85.7149C104.796 462.82 124.249 473.536 143.977 483.444L195.832 431.855H195.835ZM318.419 309.903C271.551 289.492 226.077 264.506 182.969 234.76H201.714C165.402 209.699 130.761 181.276 98.3976 149.347C95.3373 146.328 92.3131 143.283 89.3139 140.228H104.31C74.9789 110.352 48.5221 78.7267 24.9285 45.6956H36.1754C14.4563 15.289 -4.82736 -16.3083 -21.6951 -48.8365H-14.1971C-30.1456 -79.594 -43.9418 -111.175 -55.5554 -143.369L-64.9917 -133.981C-57.1855 -105.193 -47.7047 -76.7622 -36.5661 -48.8365H-44.064C-31.1925 -16.5679 -16.0854 15.0155 1.2321 45.6956H-10.0149C8.40794 78.3288 29.3301 109.937 52.7821 140.228H37.7861C59.1693 167.841 82.6379 194.369 108.2 219.587C113.432 224.748 118.745 229.784 124.096 234.757H105.351C144.449 271.103 186.624 302.491 230.795 329.289H208.301C227.382 340.865 246.835 351.582 266.563 361.489L318.419 309.9V309.903ZM257.127 370.879C210.259 350.468 164.785 325.482 121.677 295.736H140.422C104.11 270.675 69.4693 242.252 37.1058 210.323C34.0455 207.304 31.0213 204.259 28.0221 201.204H43.0181C13.6871 171.328 -12.7697 139.703 -36.3633 106.672H-25.1163C-46.8355 76.265 -66.1192 44.6679 -82.9869 12.1396H-75.4889C-91.4374 -18.6178 -105.234 -50.1986 -116.847 -82.3926L-126.284 -73.0049C-118.477 -44.2173 -108.997 -15.786 -97.8579 12.1396H-105.356C-92.4843 44.4082 -77.3773 75.9915 -60.0597 106.672H-71.3067C-52.8839 139.305 -31.9617 170.913 -8.50974 201.204H-23.5057C-2.12256 228.817 21.3461 255.345 46.9087 280.563C52.1406 285.724 57.453 290.76 62.8044 295.733H44.0594C83.1572 332.08 125.332 363.467 169.503 390.265H147.009C166.09 401.841 185.544 412.558 205.272 422.465L257.127 370.876V370.879Z" fill="url(#paint0_linear_15213_21311)"/><defs><linearGradient id="paint0_linear_15213_21311" x1="81.863" y1="27.4262" x2="237.862" y2="184.124" gradientUnits="userSpaceOnUse"><stop stop-color="#37003C" stop-opacity="0"/><stop offset="1" stop-color="#37003C" stop-opacity="0.1"/></linearGradient></defs></svg>