<svg version="1.2" xmlns="http://www.w3.org/2000/svg" viewBox="0 0 343 193" width="343" height="193">
	<defs>
		<linearGradient id="g1" x2="1" gradientUnits="userSpaceOnUse" gradientTransform="matrix(155.999,156.698,-156.701,156.002,81.863,27.426)">
			<stop offset="0" stop-color="#ffffff" stop-opacity="0"/>
			<stop offset="1" stop-color="#ffffff" stop-opacity=".1"/>
		</linearGradient>
	</defs>
	<style>
		.s0 { fill: url(#g1) } 
	</style>
	<path class="s0" d="m389.29 239.39c-19.72-9.9-39.18-20.62-58.26-32.2h22.5c-44.18-26.79-86.35-58.18-125.45-94.53h18.75c-5.35-4.97-10.67-10.01-15.9-15.17-25.56-25.22-49.03-51.74-70.41-79.36h14.99c-23.45-30.29-44.37-61.9-62.79-94.53h11.24c-17.32-30.68-32.42-62.26-45.29-94.53h7.49c-11.13-27.93-20.61-56.36-28.42-85.15l9.44-9.38c11.61 32.19 25.41 63.77 41.35 94.53h-7.49c16.86 32.52 36.15 64.12 57.87 94.53h-11.25c23.59 33.03 50.05 64.66 79.38 94.53h-15q4.5 4.59 9.09 9.12c32.36 31.93 67 60.35 103.31 85.41h-18.74c43.11 29.75 88.58 54.74 135.45 75.15l-51.86 51.59zm-9.43 9.38c-46.87-20.41-92.34-45.39-135.45-75.14h18.74c-36.31-25.06-70.95-53.48-103.31-85.41q-4.59-4.54-9.09-9.12h15c-29.33-29.88-55.79-61.5-79.38-94.53h11.24c-21.71-30.41-41-62.01-57.87-94.54h7.5c-15.95-30.75-29.74-62.33-41.36-94.53l-9.43 9.39c7.8 28.79 17.28 57.22 28.42 85.14h-7.5c12.88 32.27 27.98 63.86 45.3 94.54h-11.25c18.43 32.63 39.35 64.24 62.8 94.53h-14.99c21.38 27.61 44.85 54.14 70.41 79.36 5.23 5.16 10.54 10.2 15.89 15.17h-18.74c39.1 36.34 81.27 67.73 125.44 94.53h-22.49c19.08 11.58 38.53 22.29 58.26 32.2l51.86-51.59zm122.58-121.95c-46.87-20.41-92.34-45.4-135.45-75.14h18.75c-36.32-25.07-70.96-53.49-103.32-85.42q-4.59-4.53-9.08-9.12h14.99c-29.33-29.87-55.79-61.5-79.38-94.53h11.25c-21.72-30.41-41.01-62-57.87-94.53h7.5c-15.95-30.76-29.75-62.34-41.36-94.53l-9.44 9.38c7.81 28.79 17.29 57.22 28.43 85.15h-7.5c12.87 32.27 27.98 63.85 45.29 94.53h-11.24c18.42 32.63 39.34 64.24 62.79 94.53h-14.99c21.38 27.62 44.85 54.14 70.41 79.36 5.23 5.16 10.55 10.2 15.9 15.17h-18.75c39.1 36.35 81.28 67.74 125.45 94.53h-22.5c19.08 11.58 38.54 22.3 58.27 32.2l51.85-51.58zm-306.61 305.02c-46.86-20.41-92.34-45.39-135.44-75.14h18.74c-36.31-25.06-70.95-53.48-103.32-85.41q-4.58-4.54-9.08-9.12h15c-29.33-29.88-55.79-61.5-79.39-94.53h11.25c-21.72-30.41-41-62.01-57.87-94.54h7.5c-15.95-30.75-29.75-62.33-41.36-94.53l-9.44 9.39c7.81 28.79 17.29 57.22 28.43 85.15h-7.5c12.87 32.27 27.98 63.85 45.3 94.53h-11.25c18.42 32.63 39.34 64.24 62.8 94.53h-15c21.38 27.61 44.85 54.14 70.41 79.36 5.24 5.16 10.55 10.2 15.9 15.17h-18.75c39.1 36.35 81.28 67.73 125.45 94.53h-22.5c19.09 11.58 38.54 22.29 58.27 32.2l51.85-51.59zm122.59-121.95c-46.87-20.41-92.35-45.4-135.45-75.14h18.74c-36.31-25.06-70.95-53.49-103.32-85.41q-4.58-4.54-9.08-9.12h15c-29.33-29.88-55.79-61.51-79.38-94.54h11.24c-21.72-30.4-41-62-57.87-94.53h7.5c-15.95-30.76-29.74-62.34-41.36-94.53l-9.43 9.39c7.8 28.79 17.28 57.22 28.42 85.14h-7.5c12.87 32.27 27.98 63.85 45.3 94.53h-11.25c18.42 32.64 39.35 64.25 62.8 94.54h-15c21.39 27.61 44.85 54.14 70.42 79.36 5.23 5.16 10.54 10.19 15.89 15.17h-18.74c39.1 36.34 81.27 67.73 125.44 94.53h-22.49c19.08 11.57 38.53 22.29 58.26 32.2l51.86-51.59zm-61.3 60.97c-46.86-20.41-92.34-45.39-135.45-75.14h18.75c-36.31-25.06-70.95-53.48-103.32-85.41q-4.58-4.53-9.08-9.12h15c-29.34-29.88-55.79-61.5-79.39-94.53h11.25c-21.72-30.41-41-62.01-57.87-94.54h7.5c-15.95-30.75-29.75-62.33-41.36-94.53l-9.44 9.39c7.81 28.79 17.29 57.22 28.43 85.14h-7.5c12.87 32.27 27.98 63.86 45.3 94.54h-11.25c18.42 32.63 39.35 64.24 62.8 94.53h-15c21.38 27.61 44.85 54.14 70.42 79.36 5.23 5.16 10.54 10.19 15.89 15.17h-18.74c39.09 36.34 81.27 67.73 125.44 94.53h-22.49c19.08 11.58 38.53 22.29 58.26 32.2l51.85-51.59z"/>
</svg>